<svg width="29" height="30" viewBox="0 0 29 30" fill="none" xmlns="http://www.w3.org/2000/svg">
<g filter="url(#filter0_d_15_110)">
<path d="M24.7773 20.184L19.9056 15.312H19.8531C21.3547 13.5415 22.1136 11.2588 21.9709 8.94156C21.8282 6.62433 20.7951 4.45202 19.0876 2.87905C17.3801 1.30608 15.1306 0.454303 12.8096 0.501892C10.4886 0.549481 8.27583 1.49275 6.63427 3.13439C4.99271 4.77602 4.04948 6.98885 4.00189 9.30999C3.95431 11.6311 4.80604 13.8808 6.37894 15.5883C7.95184 17.2958 10.124 18.329 12.4412 18.4717C14.7583 18.6144 17.0408 17.8555 18.8113 16.3539C18.8113 16.3539 18.8113 16.3914 18.8113 16.4063L23.6831 21.2783C23.7527 21.3485 23.8356 21.4043 23.927 21.4424C24.0183 21.4804 24.1163 21.5 24.2152 21.5C24.3141 21.5 24.4121 21.4804 24.5034 21.4424C24.5948 21.4043 24.6777 21.3485 24.7473 21.2783C24.8242 21.2103 24.8862 21.1272 24.9296 21.0342C24.9731 20.9412 24.9969 20.8402 24.9997 20.7376C25.0025 20.635 24.9842 20.533 24.946 20.4377C24.9077 20.3425 24.8503 20.2561 24.7773 20.184ZM13.0028 16.9685C11.5204 16.9685 10.0713 16.5289 8.83879 15.7053C7.60625 14.8817 6.64561 13.7111 6.07833 12.3415C5.51106 10.9719 5.36263 9.46488 5.65183 8.01094C5.94102 6.55699 6.65485 5.22146 7.70303 4.17322C8.75122 3.12499 10.0867 2.41113 11.5406 2.12192C12.9944 1.83272 14.5014 1.98115 15.871 2.54845C17.2405 3.11575 18.411 4.07644 19.2346 5.30904C20.0581 6.54163 20.4977 7.99077 20.4977 9.4732C20.4977 10.4575 20.3038 11.4322 19.9272 12.3415C19.5505 13.2509 18.9985 14.0772 18.3025 14.7732C17.6065 15.4692 16.7803 16.0213 15.871 16.3979C14.9616 16.7746 13.987 16.9685 13.0028 16.9685Z" fill="#F7F7F7"/>
</g>
<defs>
<filter id="filter0_d_15_110" x="0" y="0.5" width="29" height="29" filterUnits="userSpaceOnUse" color-interpolation-filters="sRGB">
<feFlood flood-opacity="0" result="BackgroundImageFix"/>
<feColorMatrix in="SourceAlpha" type="matrix" values="0 0 0 0 0 0 0 0 0 0 0 0 0 0 0 0 0 0 127 0" result="hardAlpha"/>
<feOffset dy="4"/>
<feGaussianBlur stdDeviation="2"/>
<feComposite in2="hardAlpha" operator="out"/>
<feColorMatrix type="matrix" values="0 0 0 0 0 0 0 0 0 0 0 0 0 0 0 0 0 0 0.25 0"/>
<feBlend mode="normal" in2="BackgroundImageFix" result="effect1_dropShadow_15_110"/>
<feBlend mode="normal" in="SourceGraphic" in2="effect1_dropShadow_15_110" result="shape"/>
</filter>
</defs>
</svg>
